# xmcd
#
# Track frame offsets: 
#        150
#        6565
#        25981
#        44598
#        60140
#        79043
#        95914
#        114574
#        133487
#        149709
#        169111
#
# Disc length: 2488 seconds
#
# Revision: 2
# Processed by: cddbd v1.5.2PL0 Copyright (c) Steve Scherf et al.
# Submitted via: ExactAudioCopy v1.0b3
#
DISCID=a109b60b
DTITLE=蔡琴  - 金聲演奏廳 
DYEAR=2007
DGENRE=Vocal
TTITLE0=天天天藍 (Intro)
TTITLE1=祝我幸福
TTITLE2=用心良苦
TTITLE3=其實你不懂我的心
TTITLE4=為了愛夢一生
TTITLE5=只有分離
TTITLE6=吻別
TTITLE7=一場遊戲一場夢
TTITLE8=假如我是真的
TTITLE9=點亮霓虹燈
TTITLE10=海上花 
EXTD=
EXTT0=
EXTT1=
EXTT2=
EXTT3=
EXTT4=
EXTT5=
EXTT6=
EXTT7=
EXTT8=
EXTT9=
EXTT10=
PLAYORDER=
